<svg xmlns="http://www.w3.org/2000/svg" viewBox="0 0 512 512" fill="#3d9991">
  <!-- Camera body -->
  <path d="M420,128H352l-24-32H184l-24,32H92a28,28,0,0,0-28,28V384a28,28,0,0,0,28,28H420a28,28,0,0,0,28-28V156A28,28,0,0,0,420,128Z" fill="#3d9991"/>
  
  <!-- Camera Lens -->
  <circle cx="256" cy="256" r="80" fill="#fff" opacity="0.15"/>
  <circle cx="256" cy="256" r="64" fill="#fff" opacity="0.2"/>
  
  <!-- Apple Outline -->
  <path d="M256,180a76,76,0,0,0,0,152,76,76,0,0,0,0-152Zm0,136a60,60,0,1,1,60-60A60,60,0,0,1,256,316Z" fill="#2ecc71"/>
  
  <!-- Apple Shape -->
  <g transform="translate(220, 220) scale(0.6)">
    <path d="M134.48,147.85C123.5,144 114.79,134.71 111.34,124.37C109.86,120.15 109.35,116.4 109.35,109.33C109.35,101.38 110.1,96.98 112.51,91.22C115.27,84.55 119.51,78.6 125.18,73.46C130.37,68.75 133.6,66.77 143.83,61.51C151.42,57.56 156.24,55.13 159.42,53.14C166.97,48.13 172.09,42.33 174.84,34.92C175.71,32.22 177.05,25.22 177.05,23.53C177.05,22.53 177.2,22.51 178.83,23.35C183.06,25.39 187.57,29.01 190.5,32.62C196.53,40.11 198.79,48.29 198.24,61.01C198.08,65.26 197.86,67.23 197.33,68.99C195.71,74.98 192.33,79.97 187.72,83.72C186.36,84.81 182.26,87.36 178.7,89.29C172.56,92.62 169.58,94.58 166.28,97.64C163.13,100.58 161.12,103.37 159.53,107.39C158.48,110.05 158.37,110.8 158.38,115.25C158.39,119.82 158.48,120.37 159.63,123.4C161.02,127.08 163.94,131.1 166.69,133.36C170.58,136.57 174.14,138 178.14,138C181.78,138 184.24,137.12 188.37,134.37C194.66,130 198.29,125.95 202.23,118.95C204.14,115.48 204.46,114.15 204.47,109.31C204.48,104.38 204.23,103.5 201.93,97.76C200.38,93.86 200.01,92.66 200.01,90.67C200.01,88.43 200.6,86.3 201.34,85.76C201.91,85.35 204.29,86.89 207.7,90.03C211.41,93.45 214.44,97.67 215.95,101.9C217.3,105.7 217.92,109.34 217.81,113.4C217.67,118.4 217.18,120.53 214.81,126C211.68,133.29 209.14,136.69 202.08,141.86C198.34,144.58 196.66,145.36 192.07,146.98C188.24,148.36 187.37,148.5 182.73,148.5C178.28,148.5 177.17,148.34 173.51,147.15C168.66,145.55 162.95,142.8 158.89,139.93C155.68,137.65 155.4,137.55 154.25,138.24C153.56,138.65 151.4,140.66 149.45,142.74C145.33,147.13 143.65,148.5 141.78,148.5C140.43,148.5 140.08,148.32 134.48,147.85Z" fill="#2ecc71"/>
    <path d="M121.84,110.38C121.84,108.57 123.73,103.03 125.29,99.93C128.95,92.61 134.3,87.63 144.68,82.26C150.89,79.01 153.51,77.19 156.1,74.47C159.37,71.03 160.9,67.84 161.42,63.25C161.52,62.43 161.7,61.75 161.82,61.75C162.36,61.75 166.89,71.14 167.94,75.2C170.31,84.41 167.75,93.09 160.95,99.85C156.8,104 154.14,105.87 142.58,112.47C133.69,117.6 128.3,120.45 126.05,121.2C122.98,122.21 121.84,121.08 121.84,110.38Z" fill="#2ecc71"/>
  </g>
  
  <!-- Recognition Beams -->
  <path d="M380,256a124,124,0,0,1-124,124" fill="none" stroke="#2ecc71" stroke-width="6" stroke-dasharray="12" opacity="0.7"/>
  <path d="M132,256a124,124,0,0,1,124-124" fill="none" stroke="#2ecc71" stroke-width="6" stroke-dasharray="12" opacity="0.7"/>
</svg> 